<svg width="25" height="26" viewBox="0 0 25 26" fill="none" xmlns="http://www.w3.org/2000/svg">
<path d="M9.89105 15.9459L9.56456 16.3146C8.909 16.9701 8.07377 17.4166 7.16449 17.5974C6.2552 17.7783 5.3127 17.6855 4.45617 17.3307C3.59964 16.9759 2.86756 16.3751 2.35249 15.6042C1.83742 14.8334 1.5625 13.9271 1.5625 13C1.5625 12.0729 1.83742 11.1666 2.35249 10.3958C2.86756 9.62491 3.59964 9.0241 4.45617 8.66932C5.3127 8.31453 6.2552 8.2217 7.16449 8.40257C8.07377 8.58344 8.909 9.02988 9.56456 9.68544L15.4354 16.3146C16.091 16.9701 16.9262 17.4166 17.8355 17.5974C18.7448 17.7783 19.6873 17.6855 20.5438 17.3307C21.4004 16.9759 22.1324 16.3751 22.6475 15.6042C23.1626 14.8334 23.4375 13.9271 23.4375 13C23.4375 12.0729 23.1626 11.1666 22.6475 10.3958C22.1324 9.62491 21.4004 9.0241 20.5438 8.66932C19.6873 8.31453 18.7448 8.2217 17.8355 8.40257C16.9262 8.58344 16.091 9.02988 15.4354 9.68544L15.109 10.0541" stroke="#4F4F4F" stroke-width="2.5" stroke-linecap="round" stroke-linejoin="round"/>
</svg>
